<svg xmlns="http://www.w3.org/2000/svg" xmlns:xlink="http://www.w3.org/1999/xlink" width="500" zoomAndPan="magnify" viewBox="0 0 375 374.999991" height="500" preserveAspectRatio="xMidYMid meet" version="1.0"><path fill="#41c5bc" d="M 336.914062 249.996094 C 327.757812 249.996094 318.71875 246.96875 312.625 239.691406 C 307.585938 233.675781 305.496094 225.910156 303.480469 218.398438 C 302.429688 214.488281 301.339844 210.445312 299.851562 206.679688 C 294.632812 193.503906 283.609375 182.625 270.363281 177.582031 C 257.121094 172.535156 241.648438 173.328125 228.988281 179.695312 C 224.859375 181.769531 220.964844 184.4375 217.207031 187.011719 C 212.914062 189.945312 208.476562 192.984375 203.664062 195.175781 C 194.710938 199.246094 182.617188 199.925781 175.785156 192.285156 C 170.480469 186.351562 170.5 177.996094 170.523438 169.914062 C 170.527344 167.0625 170.539062 164.113281 170.304688 161.332031 C 168.945312 144.925781 157.667969 130.046875 142.238281 124.3125 C 126.808594 118.578125 108.546875 122.476562 96.808594 134.011719 C 93.390625 137.367188 90.511719 141.328125 87.730469 145.15625 C 85.078125 148.804688 82.332031 152.578125 79.121094 155.84375 C 72.589844 162.480469 62.136719 167.324219 53.515625 163.171875 C 47.394531 160.226562 43.21875 152.972656 42.347656 143.765625 C 41.976562 139.890625 42.113281 135.941406 42.25 132.125 C 42.375 128.347656 42.515625 124.4375 42.15625 120.625 C 40.589844 103.824219 28.929688 88.550781 13.132812 82.617188 C -2.660156 76.6875 -21.496094 80.507812 -33.730469 92.125 L -34.082031 91.75 C -21.707031 80 -2.660156 76.136719 13.3125 82.136719 C 29.285156 88.132812 41.082031 103.585938 42.667969 120.574219 C 43.027344 124.421875 42.890625 128.34375 42.761719 132.140625 C 42.628906 135.941406 42.496094 139.875 42.859375 143.714844 C 43.714844 152.742188 47.785156 159.835938 53.742188 162.707031 C 62.132812 166.742188 72.347656 161.988281 78.757812 155.480469 C 81.949219 152.242188 84.679688 148.488281 87.320312 144.855469 C 90.117188 141.011719 93.003906 137.035156 96.453125 133.648438 C 108.335938 121.972656 126.808594 118.027344 142.421875 123.832031 C 158.039062 129.636719 169.449219 144.691406 170.824219 161.289062 C 171.054688 164.097656 171.050781 167.054688 171.039062 169.917969 C 171.019531 177.902344 171 186.15625 176.171875 191.949219 C 182.828125 199.398438 194.667969 198.707031 203.453125 194.714844 C 208.226562 192.542969 212.644531 189.519531 216.917969 186.597656 C 220.695312 184.011719 224.605469 181.335938 228.761719 179.242188 C 241.546875 172.8125 257.171875 172.011719 270.546875 177.109375 C 283.925781 182.203125 295.058594 193.191406 300.335938 206.5 C 301.839844 210.292969 302.925781 214.351562 303.984375 218.277344 C 305.984375 225.730469 308.058594 233.445312 313.023438 239.371094 C 323.78125 252.214844 343.863281 251.582031 357.296875 244.464844 C 371.835938 236.757812 382.0625 222.730469 391.085938 210.351562 L 391.5 210.65625 C 382.445312 223.078125 372.179688 237.160156 357.539062 244.917969 C 351.519531 248.101562 344.179688 250.007812 336.925781 250.007812 Z M 336.914062 249.996094 " fill-opacity="1" fill-rule="nonzero"/><path fill="#41c5bc" d="M 333.636719 251.695312 C 324.570312 251.695312 315.59375 248.8125 309.484375 241.863281 C 304.382812 236.070312 302.109375 228.570312 299.914062 221.320312 C 298.78125 217.578125 297.609375 213.714844 296.066406 210.105469 C 295.277344 208.265625 294.355469 206.4375 293.339844 204.679688 C 287.363281 194.359375 277.621094 185.96875 266.617188 181.660156 C 253.648438 176.578125 238.496094 176.933594 226.082031 182.613281 C 222.050781 184.460938 218.242188 186.859375 214.5625 189.175781 C 210.371094 191.820312 206.035156 194.550781 201.351562 196.46875 C 192.632812 200.039062 180.902344 200.269531 174.351562 192.726562 C 169.191406 186.769531 169.136719 178.492188 169.082031 170.496094 C 169.058594 167.675781 169.039062 164.761719 168.792969 162.007812 C 167.355469 145.859375 156.371094 131.015625 141.445312 125.0625 C 126.589844 119.199219 108.785156 122.46875 97.132812 133.195312 C 93.75 136.3125 90.875 140.003906 88.09375 143.578125 C 85.449219 146.984375 82.707031 150.503906 79.511719 153.554688 C 73.496094 159.304688 63.285156 164.507812 54.292969 160.246094 C 48.773438 157.636719 44.753906 151.589844 43.257812 143.675781 C 43.132812 143 43.023438 142.3125 42.9375 141.625 C 42.464844 137.921875 42.46875 134.152344 42.480469 130.503906 C 42.484375 126.894531 42.488281 123.164062 42.03125 119.527344 C 40.011719 103.472656 28.269531 88.960938 12.820312 83.414062 C -2.675781 77.847656 -21.238281 81.578125 -33.375 92.695312 L -33.722656 92.316406 C -21.449219 81.074219 -2.679688 77.300781 12.992188 82.929688 C 28.621094 88.542969 40.492188 103.226562 42.539062 119.464844 C 43.003906 123.132812 42.996094 126.878906 42.992188 130.503906 C 42.988281 134.136719 42.980469 137.890625 43.449219 141.558594 C 43.535156 142.238281 43.644531 142.914062 43.765625 143.578125 C 45.230469 151.335938 49.148438 157.242188 54.515625 159.78125 C 63.277344 163.933594 73.265625 158.820312 79.160156 153.1875 C 82.328125 150.164062 85.058594 146.65625 87.695312 143.261719 C 90.484375 139.671875 93.375 135.960938 96.789062 132.816406 C 108.578125 121.953125 126.597656 118.648438 141.632812 124.582031 C 156.734375 130.601562 167.855469 145.617188 169.304688 161.957031 C 169.550781 164.730469 169.574219 167.65625 169.59375 170.488281 C 169.648438 178.402344 169.707031 186.582031 174.738281 192.394531 C 181.125 199.742188 192.605469 199.5 201.15625 195.996094 C 205.796875 194.09375 210.113281 191.375 214.289062 188.746094 C 217.984375 186.417969 221.804688 184.011719 225.867188 182.152344 C 238.402344 176.414062 253.707031 176.058594 266.804688 181.1875 C 277.910156 185.539062 287.75 194.011719 293.78125 204.425781 C 294.8125 206.207031 295.738281 208.050781 296.539062 209.910156 C 298.097656 213.542969 299.269531 217.429688 300.40625 221.179688 C 302.585938 228.378906 304.839844 235.824219 309.867188 241.535156 C 320.664062 253.796875 340.546875 253.1875 353.777344 246.382812 C 368.355469 238.894531 378.59375 225.347656 387.636719 213.394531 L 388.046875 213.703125 C 378.976562 225.699219 368.691406 239.292969 354.011719 246.839844 C 348.085938 249.890625 340.832031 251.707031 333.640625 251.707031 Z M 333.636719 251.695312 " fill-opacity="1" fill-rule="nonzero"/><path fill="#41c5bc" d="M 330.238281 253.507812 C 321.328125 253.507812 312.539062 250.714844 306.34375 244.035156 C 301.175781 238.460938 298.71875 231.226562 296.339844 224.222656 C 295.128906 220.660156 293.875 216.976562 292.28125 213.523438 C 291.457031 211.75 290.507812 209.980469 289.46875 208.28125 C 283.269531 198.152344 273.824219 190.140625 262.867188 185.722656 C 250.171875 180.609375 235.332031 180.53125 223.167969 185.523438 C 219.230469 187.140625 215.515625 189.265625 211.921875 191.328125 C 207.820312 193.675781 203.582031 196.105469 199.027344 197.757812 C 190.542969 200.828125 179.171875 200.605469 172.902344 193.164062 C 167.894531 187.1875 167.757812 178.992188 167.621094 171.0625 C 167.578125 168.277344 167.527344 165.398438 167.265625 162.667969 C 165.75 146.714844 155.046875 131.902344 140.636719 125.800781 C 126.398438 119.777344 109.046875 122.414062 97.445312 132.371094 C 94.097656 135.242188 91.226562 138.675781 88.449219 142 C 85.808594 145.160156 83.070312 148.429688 79.90625 151.261719 C 73.933594 156.609375 63.84375 161.402344 55.070312 157.3125 C 47.671875 153.863281 44.902344 145.886719 43.90625 141.429688 C 43.761719 140.789062 43.632812 140.132812 43.53125 139.476562 C 42.957031 135.945312 42.832031 132.347656 42.714844 128.875 C 42.597656 125.4375 42.472656 121.886719 41.914062 118.421875 C 39.4375 103.121094 27.621094 89.367188 12.511719 84.199219 C -2.679688 78.996094 -20.976562 82.640625 -33.015625 93.253906 L -33.355469 92.871094 C -21.183594 82.136719 -2.683594 78.457031 12.675781 83.714844 C 27.957031 88.945312 39.914062 102.859375 42.421875 118.339844 C 42.988281 121.835938 43.109375 125.402344 43.226562 128.855469 C 43.347656 132.3125 43.46875 135.890625 44.039062 139.394531 C 44.140625 140.035156 44.269531 140.6875 44.410156 141.320312 C 45.382812 145.679688 48.085938 153.488281 55.292969 156.84375 C 63.84375 160.832031 73.710938 156.121094 79.566406 150.878906 C 82.707031 148.070312 85.425781 144.816406 88.058594 141.667969 C 90.851562 138.332031 93.738281 134.878906 97.117188 131.976562 C 108.855469 121.898438 126.429688 119.222656 140.84375 125.320312 C 155.421875 131.492188 166.246094 146.476562 167.78125 162.609375 C 168.042969 165.351562 168.09375 168.246094 168.140625 171.042969 C 168.273438 178.878906 168.40625 186.984375 173.304688 192.820312 C 179.414062 200.070312 190.539062 200.269531 198.855469 197.257812 C 203.371094 195.625 207.589844 193.203125 211.667969 190.871094 C 215.277344 188.800781 219.007812 186.667969 222.972656 185.042969 C 235.257812 180.003906 250.246094 180.078125 263.058594 185.242188 C 274.113281 189.699219 283.652344 197.78125 289.902344 208.003906 C 290.957031 209.722656 291.910156 211.507812 292.742188 213.304688 C 294.351562 216.777344 295.605469 220.476562 296.820312 224.054688 C 299.289062 231.320312 301.617188 238.183594 306.714844 243.679688 C 317.664062 255.492188 336.90625 254.9375 350.257812 248.289062 C 363.777344 241.554688 373.625 229.871094 384.1875 216.421875 L 384.59375 216.742188 C 373.988281 230.242188 364.101562 241.964844 350.480469 248.75 C 344.488281 251.734375 337.320312 253.507812 330.230469 253.507812 Z M 330.238281 253.507812 " fill-opacity="1" fill-rule="nonzero"/><path fill="#41c5bc" d="M 326.957031 255.203125 C 318.140625 255.203125 309.40625 252.550781 303.203125 246.203125 C 297.964844 240.851562 295.316406 233.875 292.757812 227.121094 C 291.472656 223.734375 290.144531 220.234375 288.496094 216.945312 C 287.640625 215.234375 286.664062 213.53125 285.605469 211.882812 C 279.277344 202.097656 269.871094 194.25 259.121094 189.792969 C 246.523438 184.570312 232.359375 184.078125 220.261719 188.433594 C 216.429688 189.8125 212.808594 191.671875 209.308594 193.464844 C 205.296875 195.523438 201.148438 197.652344 196.714844 199.035156 C 189.0625 201.425781 177.859375 201.429688 171.476562 193.589844 C 166.601562 187.601562 166.390625 179.484375 166.1875 171.632812 C 166.113281 168.878906 166.039062 166.03125 165.761719 163.328125 C 164.164062 147.597656 153.753906 132.8125 139.851562 126.535156 C 126.214844 120.378906 109.308594 122.390625 97.777344 131.542969 C 94.464844 134.179688 91.589844 137.359375 88.808594 140.429688 C 86.171875 143.34375 83.445312 146.359375 80.3125 148.96875 C 74.386719 153.914062 64.421875 158.304688 55.863281 154.382812 C 48.617188 151.066406 45.671875 143.441406 44.5625 139.195312 C 44.402344 138.582031 44.261719 137.957031 44.132812 137.332031 C 43.453125 133.972656 43.203125 130.558594 42.957031 127.257812 C 42.714844 123.992188 42.464844 120.609375 41.796875 117.324219 C 38.855469 102.773438 26.96875 89.78125 12.207031 84.988281 C -2.691406 80.148438 -20.714844 83.699219 -32.652344 93.816406 L -32.984375 93.425781 C -20.730469 83.039062 -2.925781 79.535156 12.363281 84.5 C 27.296875 89.34375 39.328125 102.496094 42.304688 117.222656 C 42.976562 120.542969 43.226562 123.941406 43.46875 127.222656 C 43.710938 130.507812 43.960938 133.902344 44.632812 137.230469 C 44.757812 137.84375 44.902344 138.460938 45.058594 139.0625 C 46.148438 143.222656 49.023438 150.683594 56.078125 153.910156 C 64.421875 157.734375 74.167969 153.421875 79.988281 148.570312 C 83.097656 145.984375 85.8125 142.980469 88.433594 140.082031 C 91.230469 136.992188 94.121094 133.800781 97.464844 131.136719 C 109.136719 121.871094 126.261719 119.828125 140.070312 126.070312 C 154.132812 132.417969 164.664062 147.367188 166.273438 163.273438 C 166.550781 165.996094 166.628906 168.859375 166.699219 171.617188 C 166.90625 179.382812 167.113281 187.417969 171.875 193.265625 C 178.097656 200.90625 189.066406 200.886719 196.566406 198.546875 C 200.960938 197.175781 205.085938 195.0625 209.078125 193.011719 C 212.59375 191.210938 216.226562 189.339844 220.09375 187.945312 C 232.3125 183.542969 246.613281 184.039062 259.328125 189.308594 C 270.167969 193.804688 279.65625 201.722656 286.039062 211.59375 C 287.113281 213.257812 288.097656 214.976562 288.964844 216.707031 C 290.621094 220.019531 291.957031 223.53125 293.242188 226.925781 C 295.902344 233.9375 298.417969 240.554688 303.578125 245.832031 C 314.5625 257.0625 333.617188 256.527344 346.757812 250.191406 C 360.328125 243.65625 370.1875 232.402344 380.765625 219.445312 L 381.167969 219.769531 C 370.550781 232.769531 360.652344 244.066406 346.984375 250.648438 C 341.082031 253.492188 333.996094 255.179688 326.964844 255.179688 Z M 326.957031 255.203125 " fill-opacity="1" fill-rule="nonzero"/><path fill="#41c5bc" d="M 323.707031 256.960938 C 322.660156 256.960938 321.621094 256.921875 320.589844 256.847656 C 312.277344 256.246094 305.179688 253.316406 300.0625 248.371094 C 294.746094 243.234375 291.90625 236.511719 289.15625 230.003906 C 287.800781 226.804688 286.398438 223.488281 284.710938 220.363281 C 283.816406 218.710938 282.816406 217.070312 281.730469 215.484375 C 275.269531 206.039062 265.910156 198.355469 255.371094 193.863281 C 243.054688 188.609375 229.195312 187.6875 217.347656 191.347656 C 213.625 192.496094 210.105469 194.082031 206.703125 195.617188 C 202.769531 197.386719 198.710938 199.21875 194.390625 200.332031 C 186.957031 202.257812 176.113281 201.757812 170.03125 194.035156 C 165.296875 188.03125 165.007812 179.992188 164.730469 172.214844 C 164.632812 169.488281 164.527344 166.675781 164.238281 164.003906 C 162.539062 148.25 152.648438 133.835938 139.054688 127.289062 C 126.007812 121.007812 109.546875 122.390625 98.097656 130.734375 C 94.8125 133.128906 91.933594 136.054688 89.148438 138.882812 C 86.519531 141.542969 83.8125 144.300781 80.707031 146.6875 C 74.535156 151.453125 64.972656 155.207031 56.640625 151.464844 C 49.550781 148.277344 46.433594 141.015625 45.214844 136.972656 C 45.035156 136.386719 44.875 135.792969 44.730469 135.207031 C 43.953125 132.019531 43.570312 128.792969 43.203125 125.675781 C 42.839844 122.570312 42.457031 119.363281 41.6875 116.246094 C 38.289062 102.457031 26.316406 90.21875 11.902344 85.800781 C -2.921875 81.253906 -20.265625 84.628906 -32.285156 94.398438 L -32.609375 94 C -20.460938 84.121094 -2.925781 80.710938 12.050781 85.308594 C 26.628906 89.777344 38.738281 102.15625 42.183594 116.121094 C 42.960938 119.265625 43.339844 122.488281 43.710938 125.605469 C 44.082031 128.710938 44.460938 131.921875 45.230469 135.078125 C 45.375 135.660156 45.53125 136.242188 45.707031 136.820312 C 46.90625 140.78125 49.949219 147.886719 56.855469 150.992188 C 64.984375 154.644531 74.34375 150.949219 80.398438 146.277344 C 83.472656 143.910156 86.175781 141.164062 88.789062 138.515625 C 91.589844 135.675781 94.484375 132.734375 97.804688 130.3125 C 109.40625 121.863281 126.070312 120.460938 139.285156 126.824219 C 153.039062 133.449219 163.035156 148.019531 164.753906 163.941406 C 165.050781 166.636719 165.148438 169.457031 165.253906 172.191406 C 165.53125 179.882812 165.816406 187.84375 170.445312 193.714844 C 176.375 201.242188 186.988281 201.710938 194.273438 199.828125 C 198.554688 198.726562 202.59375 196.90625 206.5 195.144531 C 209.917969 193.605469 213.449219 192.015625 217.207031 190.855469 C 229.171875 187.164062 243.160156 188.089844 255.582031 193.390625 C 266.207031 197.925781 275.648438 205.667969 282.160156 215.195312 C 283.253906 216.796875 284.269531 218.457031 285.167969 220.125 C 286.867188 223.269531 288.273438 226.59375 289.632812 229.8125 C 292.484375 236.5625 295.183594 242.941406 300.421875 248.003906 C 311.445312 258.664062 330.304688 258.144531 343.242188 252.125 C 356.855469 245.789062 367.132812 234.5 377.324219 222.503906 L 377.714844 222.835938 C 367.488281 234.875 357.167969 246.210938 343.457031 252.59375 C 337.332031 255.445312 330.425781 256.964844 323.710938 256.964844 Z M 323.707031 256.960938 " fill-opacity="1" fill-rule="nonzero"/><path fill="#41c5bc" d="M 320.191406 258.695312 C 311.78125 258.695312 303.3125 256.375 296.921875 250.546875 C 291.519531 245.625 288.617188 239.4375 285.535156 232.890625 C 284.117188 229.871094 282.652344 226.753906 280.925781 223.792969 C 280 222.207031 278.96875 220.625 277.859375 219.097656 C 271.273438 209.988281 261.953125 202.476562 251.625 197.941406 C 239.597656 192.660156 226.042969 191.316406 214.433594 194.265625 C 210.820312 195.1875 207.414062 196.492188 204.121094 197.761719 C 200.265625 199.246094 196.285156 200.777344 192.074219 201.621094 C 184.507812 203.144531 174.371094 202.066406 168.59375 194.476562 C 164.003906 188.453125 163.636719 180.488281 163.28125 172.792969 C 163.160156 170.105469 163.027344 167.324219 162.71875 164.675781 C 160.9375 149.136719 151.335938 134.757812 138.253906 128.035156 C 125.800781 121.640625 109.789062 122.394531 98.414062 129.914062 C 95.152344 132.078125 92.390625 134.628906 89.464844 137.332031 C 86.859375 139.742188 84.160156 142.238281 81.097656 144.398438 C 74.96875 148.742188 65.527344 152.113281 57.417969 148.53125 C 50.484375 145.480469 47.199219 138.578125 45.855469 134.734375 C 45.660156 134.179688 45.480469 133.621094 45.316406 133.0625 C 44.4375 130.054688 43.925781 127.019531 43.433594 124.074219 C 42.941406 121.132812 42.433594 118.09375 41.554688 115.148438 C 37.628906 101.910156 25.863281 90.703125 11.578125 86.589844 C -2.9375 82.402344 -20.023438 85.691406 -31.941406 94.964844 L -32.257812 94.558594 C -20.207031 85.1875 -2.945312 81.863281 11.722656 86.097656 C 26.167969 90.257812 38.070312 101.605469 42.046875 115 C 42.929688 117.976562 43.445312 121.03125 43.941406 123.984375 C 44.433594 126.910156 44.9375 129.9375 45.808594 132.914062 C 45.96875 133.460938 46.148438 134.015625 46.335938 134.5625 C 47.652344 138.320312 50.863281 145.078125 57.621094 148.054688 C 65.539062 151.546875 74.785156 148.234375 80.796875 143.972656 C 83.835938 141.828125 86.519531 139.347656 89.117188 136.945312 C 91.929688 134.351562 94.832031 131.660156 98.132812 129.476562 C 109.65625 121.855469 125.875 121.089844 138.488281 127.566406 C 151.714844 134.359375 161.429688 148.902344 163.226562 164.605469 C 163.539062 167.265625 163.667969 170.058594 163.789062 172.757812 C 164.144531 180.378906 164.507812 188.261719 169 194.160156 C 174.632812 201.5625 184.5625 202.605469 191.96875 201.113281 C 196.140625 200.277344 199.929688 198.820312 203.9375 197.273438 C 207.246094 196 210.667969 194.683594 214.3125 193.757812 C 226.027344 190.78125 239.699219 192.132812 251.832031 197.457031 C 262.242188 202.03125 271.632812 209.605469 278.277344 218.785156 C 279.394531 220.328125 280.429688 221.925781 281.367188 223.523438 C 283.105469 226.5 284.574219 229.632812 286 232.660156 C 289.058594 239.160156 291.941406 245.300781 297.265625 250.15625 C 308.84375 260.714844 327.386719 259.566406 339.722656 254.03125 C 353.40625 247.894531 363.683594 237.046875 373.875 225.53125 L 374.261719 225.871094 C 364.035156 237.429688 353.714844 248.3125 339.933594 254.496094 C 334.242188 257.050781 327.238281 258.679688 320.191406 258.679688 Z M 320.191406 258.695312 " fill-opacity="1" fill-rule="nonzero"/><path fill="#41c5bc" d="M 317.191406 260.421875 C 308.171875 260.421875 299.699219 257.796875 293.78125 252.714844 C 288.289062 248.003906 285.183594 242.054688 281.894531 235.746094 C 280.417969 232.921875 278.890625 229.996094 277.136719 227.214844 C 276.171875 225.691406 275.117188 224.171875 273.988281 222.699219 C 267.265625 213.929688 257.992188 206.582031 247.875 202.003906 C 236.132812 196.699219 222.886719 194.933594 211.519531 197.171875 C 208.035156 197.859375 204.746094 198.894531 201.566406 199.894531 C 197.605469 201.148438 193.859375 202.328125 189.742188 202.902344 C 186.1875 203.402344 174.050781 204.304688 167.144531 194.910156 C 162.703125 188.863281 162.253906 180.976562 161.820312 173.351562 C 161.671875 170.695312 161.511719 167.949219 161.1875 165.335938 C 159.332031 150.011719 150.007812 135.660156 137.445312 128.773438 C 125.582031 122.273438 110.027344 122.398438 98.726562 129.089844 C 95.480469 131.019531 92.703125 133.339844 89.757812 135.792969 C 87.171875 137.949219 84.5 140.179688 81.480469 142.113281 C 78.527344 144.019531 68.121094 149.902344 58.191406 145.613281 C 51.757812 142.832031 48.28125 136.957031 46.503906 132.511719 C 46.292969 131.996094 46.097656 131.460938 45.910156 130.933594 C 44.9375 128.109375 44.300781 125.257812 43.683594 122.496094 C 43.0625 119.714844 42.421875 116.84375 41.441406 114.066406 C 37.039062 101.605469 25.199219 91.136719 11.277344 87.394531 C -2.9375 83.566406 -19.757812 86.769531 -31.578125 95.542969 L -31.886719 95.132812 C -19.945312 86.265625 -2.953125 83.035156 11.410156 86.902344 C 25.496094 90.691406 37.472656 101.285156 41.929688 113.898438 C 42.925781 116.703125 43.566406 119.59375 44.191406 122.390625 C 44.804688 125.136719 45.441406 127.972656 46.40625 130.769531 C 46.585938 131.292969 46.777344 131.816406 46.984375 132.324219 C 48.730469 136.675781 52.132812 142.4375 58.402344 145.148438 C 68.097656 149.339844 78.308594 143.554688 81.214844 141.6875 C 84.199219 139.769531 86.863281 137.550781 89.441406 135.40625 C 92.265625 133.050781 95.191406 130.613281 98.476562 128.660156 C 109.921875 121.882812 125.691406 121.753906 137.703125 128.335938 C 150.40625 135.300781 159.828125 149.804688 161.707031 165.285156 C 162.03125 167.917969 162.1875 170.675781 162.34375 173.335938 C 162.773438 180.890625 163.214844 188.699219 167.566406 194.617188 C 174.304688 203.78125 186.191406 202.898438 189.675781 202.40625 C 193.75 201.835938 197.472656 200.660156 201.417969 199.417969 C 204.613281 198.414062 207.914062 197.371094 211.421875 196.679688 C 222.890625 194.421875 236.253906 196.195312 248.085938 201.546875 C 258.273438 206.15625 267.617188 213.558594 274.390625 222.394531 C 275.527344 223.878906 276.597656 225.40625 277.566406 226.949219 C 279.332031 229.742188 280.863281 232.679688 282.34375 235.515625 C 285.609375 241.777344 288.691406 247.683594 294.109375 252.332031 C 304.066406 260.875 321.371094 262.371094 336.207031 255.964844 C 349.964844 250.027344 360.65625 239.183594 370.433594 228.589844 L 370.804688 228.9375 C 360.996094 239.574219 350.261719 250.457031 336.40625 256.4375 C 330.199219 259.121094 323.554688 260.429688 317.1875 260.429688 Z M 317.191406 260.421875 " fill-opacity="1" fill-rule="nonzero"/><path fill="#41c5bc" d="M 313.515625 262.1875 C 305.339844 262.1875 297.101562 260.089844 290.640625 254.886719 C 285.042969 250.382812 281.730469 244.65625 278.226562 238.59375 C 276.699219 235.964844 275.125 233.242188 273.355469 230.640625 C 272.367188 229.183594 271.277344 227.726562 270.121094 226.3125 C 263.269531 217.878906 254.035156 210.695312 244.128906 206.085938 C 232.679688 200.757812 219.734375 198.570312 208.605469 200.097656 C 205.265625 200.554688 202.105469 201.316406 199.050781 202.0625 C 195.140625 203.011719 191.453125 203.902344 187.417969 204.207031 C 183.980469 204.46875 172.25 204.597656 165.703125 195.359375 C 161.402344 189.296875 160.878906 181.484375 160.367188 173.933594 C 160.191406 171.308594 160.007812 168.601562 159.667969 166.015625 C 157.699219 150.65625 148.878906 136.675781 136.644531 129.523438 C 125.195312 122.824219 110.4375 122.339844 99.039062 128.273438 C 95.796875 129.972656 92.996094 132.058594 90.023438 134.261719 C 87.46875 136.160156 84.828125 138.121094 81.871094 139.824219 C 74.035156 144.371094 65.476562 145.4375 58.964844 142.6875 C 52.691406 140.035156 49.074219 134.480469 47.148438 130.285156 C 46.921875 129.800781 46.707031 129.296875 46.507812 128.796875 C 45.433594 126.160156 44.675781 123.503906 43.941406 120.933594 C 43.191406 118.3125 42.417969 115.597656 41.320312 112.980469 C 36.441406 101.300781 24.523438 91.570312 10.957031 88.191406 C -3.164062 84.664062 -19.332031 87.703125 -31.230469 96.113281 L -31.527344 95.691406 C -19.503906 87.199219 -3.183594 84.132812 11.082031 87.691406 C 24.796875 91.109375 36.855469 100.957031 41.792969 112.777344 C 42.898438 115.425781 43.679688 118.152344 44.433594 120.789062 C 45.164062 123.34375 45.921875 125.992188 46.980469 128.605469 C 47.179688 129.097656 47.390625 129.589844 47.617188 130.070312 C 49.503906 134.179688 53.042969 139.625 59.164062 142.214844 C 65.527344 144.90625 73.917969 143.847656 81.613281 139.382812 C 84.542969 137.695312 87.175781 135.742188 89.714844 133.851562 C 92.703125 131.636719 95.519531 129.542969 98.800781 127.824219 C 110.34375 121.804688 125.300781 122.296875 136.898438 129.082031 C 149.265625 136.3125 158.183594 150.4375 160.167969 165.949219 C 160.507812 168.550781 160.691406 171.265625 160.871094 173.894531 C 161.375 181.378906 161.898438 189.117188 166.113281 195.0625 C 172.507812 204.078125 184 203.949219 187.371094 203.691406 C 191.363281 203.394531 195.035156 202.507812 198.921875 201.5625 C 201.992188 200.820312 205.164062 200.050781 208.527344 199.59375 C 219.75 198.058594 232.800781 200.253906 244.332031 205.628906 C 254.308594 210.269531 263.601562 217.507812 270.507812 225.992188 C 271.667969 227.425781 272.765625 228.890625 273.765625 230.359375 C 275.550781 232.976562 277.128906 235.707031 278.65625 238.34375 C 282.140625 244.363281 285.429688 250.046875 290.949219 254.496094 C 302.664062 263.9375 320.351562 263 332.683594 257.886719 C 346.542969 252.148438 357.222656 241.769531 366.980469 231.636719 L 367.347656 231.992188 C 357.554688 242.167969 346.824219 252.582031 332.878906 258.359375 C 327.1875 260.722656 320.367188 262.199219 313.5 262.199219 Z M 313.515625 262.1875 " fill-opacity="1" fill-rule="nonzero"/><path fill="#41c5bc" d="M 310.449219 263.914062 C 301.726562 263.914062 293.511719 261.582031 287.503906 257.058594 C 281.785156 252.757812 278.253906 247.246094 274.515625 241.417969 C 272.960938 238.984375 271.347656 236.476562 269.570312 234.0625 C 268.542969 232.675781 267.425781 231.277344 266.25 229.917969 C 259.261719 221.820312 250.070312 214.800781 240.378906 210.160156 C 229.226562 204.8125 216.585938 202.203125 205.691406 203.011719 C 202.507812 203.242188 199.503906 203.746094 196.59375 204.226562 C 192.726562 204.867188 189.066406 205.472656 185.101562 205.492188 C 180.824219 205.523438 170.296875 204.621094 164.273438 195.800781 C 160.117188 189.714844 159.511719 181.984375 158.925781 174.5 C 158.71875 171.914062 158.515625 169.246094 158.160156 166.691406 C 156.109375 151.535156 147.566406 137.582031 135.859375 130.277344 C 125.003906 123.5 110.675781 122.394531 99.367188 127.464844 C 96.121094 128.933594 93.277344 130.785156 90.269531 132.746094 C 87.757812 134.382812 85.160156 136.074219 82.277344 137.546875 C 78.539062 139.472656 68.863281 143.535156 59.761719 139.769531 C 53.644531 137.238281 49.886719 132.003906 47.816406 128.066406 C 47.570312 127.597656 47.339844 127.132812 47.117188 126.667969 C 45.957031 124.222656 45.082031 121.765625 44.230469 119.386719 C 43.347656 116.914062 42.433594 114.359375 41.21875 111.898438 C 35.777344 100.832031 24.070312 92.058594 10.660156 88.996094 C -3.152344 85.832031 -19.058594 88.78125 -30.859375 96.691406 L -31.148438 96.265625 C -19.234375 88.277344 -3.167969 85.300781 10.773438 88.5 C 24.332031 91.597656 36.171875 100.480469 41.671875 111.675781 C 42.898438 114.164062 43.820312 116.734375 44.707031 119.21875 C 45.554688 121.585938 46.425781 124.03125 47.574219 126.453125 C 47.789062 126.910156 48.019531 127.367188 48.261719 127.828125 C 50.292969 131.699219 53.972656 136.828125 59.949219 139.296875 C 68.851562 142.980469 78.363281 138.980469 82.035156 137.089844 C 84.898438 135.632812 87.484375 133.945312 89.984375 132.3125 C 93.003906 130.34375 95.863281 128.480469 99.148438 126.996094 C 110.605469 121.855469 125.121094 122.96875 136.121094 129.839844 C 147.957031 137.222656 156.589844 151.320312 158.660156 166.621094 C 159.011719 169.1875 159.222656 171.871094 159.429688 174.460938 C 160.007812 181.875 160.609375 189.535156 164.6875 195.515625 C 170.574219 204.132812 180.90625 205.027344 185.089844 204.984375 C 189.015625 204.964844 192.652344 204.367188 196.5 203.722656 C 199.421875 203.242188 202.441406 202.738281 205.644531 202.503906 C 216.625 201.691406 229.367188 204.320312 240.59375 209.703125 C 250.347656 214.382812 259.59375 221.441406 266.628906 229.589844 C 267.8125 230.960938 268.9375 232.367188 269.972656 233.773438 C 271.765625 236.199219 273.382812 238.71875 274.941406 241.152344 C 278.65625 246.945312 282.160156 252.414062 287.804688 256.660156 C 297.980469 264.332031 314.609375 265.601562 329.175781 259.808594 C 343.144531 254.265625 354.242188 243.925781 363.546875 234.675781 L 363.910156 235.039062 C 354.570312 244.328125 343.425781 254.703125 329.367188 260.285156 C 323.214844 262.726562 316.699219 263.925781 310.445312 263.925781 Z M 310.449219 263.914062 " fill-opacity="1" fill-rule="nonzero"/><path fill="#41c5bc" d="M 307.011719 265.691406 C 298.476562 265.691406 290.453125 263.5 284.363281 259.226562 C 278.507812 255.121094 274.746094 249.820312 270.757812 244.214844 C 269.183594 241.992188 267.550781 239.699219 265.78125 237.480469 C 264.714844 236.148438 263.570312 234.8125 262.378906 233.515625 C 255.246094 225.75 246.105469 218.898438 236.632812 214.21875 C 225.917969 208.925781 213.742188 205.90625 203.15625 205.90625 C 203.027344 205.90625 202.898438 205.90625 202.769531 205.90625 C 199.773438 205.925781 196.9375 206.167969 194.195312 206.398438 C 190.339844 206.726562 186.691406 207.035156 182.769531 206.757812 C 177.675781 206.402344 168.3125 204.566406 162.832031 196.21875 C 158.816406 190.105469 158.136719 182.445312 157.46875 175.039062 C 157.242188 172.496094 157.007812 169.863281 156.636719 167.339844 C 154.464844 152.152344 146.402344 138.5625 135.054688 130.996094 C 124.777344 124.140625 110.894531 122.425781 99.675781 126.625 C 96.402344 127.859375 93.507812 129.480469 90.445312 131.199219 C 87.992188 132.574219 85.457031 133.996094 82.660156 135.238281 C 78.945312 136.902344 69.351562 140.386719 60.535156 136.824219 C 55.753906 134.894531 51.695312 131.191406 48.460938 125.816406 C 48.199219 125.382812 47.949219 124.949219 47.714844 124.515625 C 46.472656 122.265625 45.480469 120.007812 44.519531 117.832031 C 43.449219 115.394531 42.4375 113.097656 41.105469 110.789062 C 35.183594 100.53125 23.394531 92.476562 10.351562 89.769531 C -3.148438 86.964844 -18.800781 89.828125 -30.507812 97.242188 L -30.785156 96.8125 C -18.972656 89.324219 -3.171875 86.4375 10.449219 89.273438 C 23.632812 92.007812 35.546875 100.15625 41.539062 110.535156 C 42.890625 112.871094 43.957031 115.289062 44.984375 117.628906 C 45.9375 119.796875 46.921875 122.039062 48.152344 124.269531 C 48.390625 124.695312 48.636719 125.121094 48.894531 125.550781 C 52.0625 130.824219 56.039062 134.457031 60.71875 136.347656 C 69.351562 139.832031 78.789062 136.402344 82.445312 134.765625 C 85.214844 133.539062 87.746094 132.125 90.1875 130.753906 C 93.265625 129.023438 96.175781 127.394531 99.488281 126.144531 C 110.851562 121.890625 124.921875 123.625 135.328125 130.570312 C 146.789062 138.214844 154.945312 151.933594 157.128906 167.265625 C 157.5 169.800781 157.734375 172.445312 157.964844 174.996094 C 158.621094 182.335938 159.304688 189.9375 163.246094 195.933594 C 168.609375 204.097656 177.792969 205.898438 182.789062 206.242188 C 186.675781 206.515625 190.296875 206.207031 194.140625 205.882812 C 196.894531 205.648438 199.742188 205.40625 202.757812 205.386719 C 202.882812 205.386719 203.011719 205.386719 203.140625 205.386719 C 213.804688 205.386719 226.0625 208.425781 236.84375 213.75 C 246.371094 218.457031 255.570312 225.351562 262.746094 233.160156 C 263.945312 234.46875 265.097656 235.808594 266.171875 237.152344 C 267.953125 239.378906 269.585938 241.679688 271.164062 243.90625 C 275.121094 249.476562 278.859375 254.742188 284.644531 258.796875 C 295.015625 266.082031 311.109375 267.222656 325.65625 261.699219 C 339.085938 256.609375 350.144531 247.152344 360.097656 237.691406 L 360.453125 238.0625 C 350.457031 247.558594 339.347656 257.058594 325.835938 262.179688 C 319.652344 264.523438 313.195312 265.675781 306.996094 265.675781 Z M 307.011719 265.691406 " fill-opacity="1" fill-rule="nonzero"/><path fill="#41c5bc" d="M 303.695312 267.402344 C 295.277344 267.402344 287.316406 265.371094 281.226562 261.402344 C 275.214844 257.492188 271.199219 252.386719 266.945312 246.984375 C 265.371094 244.984375 263.746094 242.914062 262.003906 240.910156 C 260.90625 239.648438 259.738281 238.371094 258.515625 237.128906 C 251.246094 229.691406 242.144531 223.007812 232.886719 218.296875 C 222.203125 212.863281 210.476562 209.5 199.863281 208.824219 C 197.089844 208.648438 194.457031 208.648438 191.910156 208.648438 C 188.023438 208.648438 184.359375 208.648438 180.445312 208.054688 C 175.550781 207.320312 166.5625 204.863281 161.394531 196.667969 C 157.523438 190.53125 156.761719 182.949219 156.015625 175.609375 C 155.765625 173.101562 155.503906 170.511719 155.117188 168.019531 C 152.859375 153.019531 145.066406 139.457031 134.253906 131.753906 C 124.402344 124.730469 111.273438 122.457031 99.988281 125.816406 C 96.667969 126.816406 93.699219 128.214844 90.558594 129.691406 C 88.1875 130.804688 85.734375 131.960938 83.054688 132.964844 C 78.464844 134.703125 69.535156 137.148438 61.324219 133.914062 C 56.675781 132.082031 52.578125 128.617188 49.128906 123.605469 C 48.851562 123.199219 48.582031 122.800781 48.328125 122.398438 C 47.015625 120.359375 45.921875 118.316406 44.867188 116.339844 C 43.640625 114.046875 42.480469 111.886719 41.007812 109.722656 C 34.597656 100.269531 22.738281 92.9375 10.0625 90.585938 C -3.328125 88.09375 -18.351562 90.800781 -30.132812 97.832031 L -30.394531 97.390625 C -18.507812 90.300781 -3.351562 87.566406 10.152344 90.085938 C 22.960938 92.464844 34.945312 99.878906 41.433594 109.433594 C 42.921875 111.621094 44.085938 113.796875 45.320312 116.097656 C 46.375 118.0625 47.460938 120.097656 48.765625 122.125 C 49.015625 122.519531 49.28125 122.917969 49.558594 123.3125 C 52.945312 128.238281 56.976562 131.648438 61.527344 133.4375 C 69.578125 136.609375 78.367188 134.203125 82.890625 132.488281 C 85.550781 131.492188 87.996094 130.34375 90.359375 129.230469 C 93.519531 127.746094 96.503906 126.339844 99.859375 125.328125 C 111.296875 121.921875 124.597656 124.226562 134.574219 131.339844 C 145.492188 139.121094 153.367188 152.808594 155.640625 167.949219 C 156.027344 170.449219 156.289062 173.050781 156.542969 175.5625 C 157.277344 182.839844 158.039062 190.367188 161.84375 196.402344 C 166.898438 204.425781 175.730469 206.832031 180.539062 207.558594 C 184.414062 208.140625 188.058594 208.140625 191.925781 208.140625 C 194.480469 208.140625 197.121094 208.140625 199.910156 208.320312 C 210.589844 209 222.394531 212.378906 233.132812 217.84375 C 242.433594 222.582031 251.589844 229.300781 258.894531 236.773438 C 260.121094 238.027344 261.300781 239.308594 262.40625 240.582031 C 264.15625 242.597656 265.789062 244.671875 267.363281 246.671875 C 271.585938 252.039062 275.578125 257.109375 281.519531 260.976562 C 291.925781 267.761719 307.882812 268.808594 322.167969 263.640625 C 335.730469 258.738281 346.773438 249.746094 356.6875 240.753906 L 357.03125 241.136719 C 347.078125 250.160156 335.988281 259.195312 322.34375 264.121094 C 316.253906 266.324219 309.855469 267.410156 303.707031 267.410156 Z M 303.695312 267.402344 " fill-opacity="1" fill-rule="nonzero"/><path fill="#41c5bc" d="M 300.253906 269.171875 C 292.027344 269.171875 284.253906 267.277344 278.085938 263.570312 C 271.882812 259.839844 267.589844 254.917969 263.035156 249.710938 C 261.492188 247.9375 259.898438 246.113281 258.21875 244.332031 C 257.085938 243.132812 255.882812 241.921875 254.640625 240.730469 C 247.113281 233.515625 238.289062 227.167969 229.128906 222.367188 C 218.789062 216.941406 207.359375 213.171875 196.933594 211.734375 C 194.433594 211.390625 192.050781 211.175781 189.742188 210.96875 C 185.789062 210.613281 182.050781 210.28125 178.105469 209.335938 C 172.371094 207.976562 164.558594 204.75 159.941406 197.109375 C 156.214844 190.949219 155.371094 183.429688 154.554688 176.164062 C 154.277344 173.695312 153.988281 171.144531 153.59375 168.695312 C 151.25 153.863281 143.722656 140.332031 133.453125 132.5 C 124.175781 125.421875 111.472656 122.550781 100.296875 125 C 96.871094 125.765625 93.769531 126.941406 90.492188 128.183594 C 88.253906 129.03125 85.941406 129.90625 83.441406 130.675781 C 77.839844 132.40625 69.585938 133.859375 62.101562 130.988281 C 57.527344 129.238281 53.5 126.09375 49.777344 121.378906 C 49.476562 121.003906 49.195312 120.636719 48.917969 120.265625 C 47.554688 118.4375 46.375 116.617188 45.230469 114.863281 C 43.828125 112.703125 42.503906 110.664062 40.878906 108.632812 C 33.878906 99.871094 22.238281 93.417969 9.730469 91.382812 C -3.335938 89.242188 -18.113281 91.863281 -29.792969 98.402344 L -30.042969 97.957031 C -18.261719 91.367188 -3.363281 88.71875 9.8125 90.878906 C 22.441406 92.941406 34.203125 99.457031 41.277344 108.320312 C 42.921875 110.367188 44.25 112.421875 45.65625 114.589844 C 46.792969 116.34375 47.96875 118.15625 49.324219 119.96875 C 49.597656 120.332031 49.878906 120.703125 50.171875 121.070312 C 53.835938 125.710938 57.796875 128.804688 62.273438 130.523438 C 69.621094 133.339844 77.757812 131.902344 83.28125 130.199219 C 85.765625 129.433594 88.074219 128.5625 90.300781 127.714844 C 93.601562 126.464844 96.714844 125.285156 100.179688 124.515625 C 111.5 122.03125 124.363281 124.941406 133.757812 132.101562 C 144.28125 140.132812 151.695312 153.445312 154.09375 168.625 C 154.492188 171.089844 154.78125 173.644531 155.058594 176.117188 C 155.867188 183.332031 156.710938 190.789062 160.378906 196.859375 C 164.902344 204.351562 172.578125 207.515625 178.21875 208.855469 C 182.125 209.789062 185.84375 210.121094 189.785156 210.476562 C 192.09375 210.683594 194.484375 210.898438 196.992188 211.246094 C 207.472656 212.6875 218.964844 216.484375 229.359375 221.933594 C 238.5625 226.757812 247.421875 233.140625 254.984375 240.386719 C 256.234375 241.582031 257.445312 242.796875 258.578125 244.007812 C 260.265625 245.800781 261.863281 247.632812 263.410156 249.402344 C 267.933594 254.578125 272.199219 259.46875 278.339844 263.15625 C 288.9375 269.542969 304.378906 270.46875 318.628906 265.574219 C 332.378906 260.859375 343.828125 251.925781 353.21875 243.808594 L 353.550781 244.199219 C 344.125 252.347656 332.625 261.316406 318.792969 266.058594 C 312.671875 268.160156 306.328125 269.199219 300.234375 269.199219 Z M 300.253906 269.171875 " fill-opacity="1" fill-rule="nonzero"/><path fill="#41c5bc" d="M 296.917969 270.878906 C 288.8125 270.878906 281.113281 269.144531 274.953125 265.738281 C 268.511719 262.183594 263.898438 257.425781 259.019531 252.386719 C 257.546875 250.867188 256.023438 249.296875 254.441406 247.753906 C 253.273438 246.609375 252.039062 245.460938 250.785156 244.335938 C 243.09375 237.445312 234.3125 231.257812 225.394531 226.433594 C 215.429688 221.046875 204.289062 216.855469 194.027344 214.636719 C 191.878906 214.171875 189.808594 213.792969 187.8125 213.425781 C 183.710938 212.671875 179.835938 211.964844 175.796875 210.613281 C 167.816406 207.96875 162.007812 203.570312 158.527344 197.539062 C 154.945312 191.347656 154.015625 183.902344 153.117188 176.699219 C 152.816406 174.277344 152.5 171.765625 152.089844 169.355469 C 149.617188 154.464844 142.542969 141.296875 132.667969 133.230469 C 123.816406 125.996094 111.835938 122.609375 100.621094 124.171875 C 97.058594 124.679688 93.796875 125.617188 90.34375 126.617188 C 88.269531 127.21875 86.125 127.835938 83.835938 128.378906 C 75.707031 130.3125 68.664062 130.203125 62.890625 128.054688 C 58.472656 126.40625 54.398438 123.492188 50.449219 119.140625 C 50.136719 118.796875 49.832031 118.460938 49.539062 118.121094 C 48.148438 116.523438 46.90625 114.941406 45.707031 113.410156 C 44.105469 111.367188 42.597656 109.445312 40.792969 107.535156 C 33.304688 99.609375 21.585938 93.859375 9.445312 92.164062 C -3.300781 90.371094 -17.828125 92.910156 -29.417969 98.957031 L -29.65625 98.5 C -17.976562 92.410156 -3.332031 89.847656 9.515625 91.652344 C 21.769531 93.367188 33.601562 99.171875 41.164062 107.179688 C 42.988281 109.105469 44.507812 111.039062 46.113281 113.09375 C 47.308594 114.621094 48.542969 116.195312 49.929688 117.78125 C 50.222656 118.117188 50.519531 118.453125 50.832031 118.792969 C 54.734375 123.082031 58.734375 125.949219 63.082031 127.566406 C 68.757812 129.679688 75.703125 129.785156 83.730469 127.875 C 86.007812 127.332031 88.140625 126.714844 90.210938 126.121094 C 93.679688 125.121094 96.957031 124.171875 100.558594 123.65625 C 111.914062 122.078125 124.042969 125.503906 133.003906 132.832031 C 142.96875 140.980469 150.117188 154.257812 152.605469 169.269531 C 153.015625 171.691406 153.328125 174.203125 153.628906 176.632812 C 154.523438 183.785156 155.445312 191.179688 158.972656 197.277344 C 162.390625 203.191406 168.105469 207.515625 175.960938 210.121094 C 179.964844 211.460938 183.820312 212.164062 187.910156 212.917969 C 189.914062 213.28125 191.984375 213.667969 194.144531 214.136719 C 204.453125 216.367188 215.640625 220.574219 225.652344 225.984375 C 234.609375 230.820312 243.421875 237.035156 251.144531 243.953125 C 252.40625 245.082031 253.640625 246.234375 254.816406 247.386719 C 256.402344 248.929688 257.925781 250.503906 259.402344 252.027344 C 264.257812 257.035156 268.84375 261.773438 275.21875 265.289062 C 285.859375 271.171875 301.160156 272.007812 315.152344 267.464844 C 329.074219 262.949219 340.488281 254.496094 349.816406 246.820312 L 350.136719 247.214844 C 340.773438 254.917969 329.3125 263.40625 315.308594 267.949219 C 309.269531 269.910156 302.988281 270.878906 296.933594 270.878906 Z M 296.917969 270.878906 " fill-opacity="1" fill-rule="nonzero"/><path fill="#41c5bc" d="M 293.464844 272.652344 C 285.550781 272.652344 278.039062 271.054688 271.8125 267.910156 C 265.078125 264.519531 260.097656 259.890625 254.820312 254.996094 C 253.476562 253.742188 252.082031 252.449219 250.65625 251.175781 C 249.445312 250.09375 248.183594 249.007812 246.910156 247.9375 C 239.042969 241.359375 230.304688 235.332031 221.640625 230.503906 C 212.105469 225.1875 201.257812 220.585938 191.097656 217.542969 C 189.394531 217.027344 187.746094 216.566406 186.152344 216.121094 C 181.789062 214.894531 177.675781 213.734375 173.457031 211.894531 C 165.75 208.542969 160.394531 203.992188 157.074219 197.980469 C 153.636719 191.753906 152.625 184.375 151.644531 177.238281 C 151.320312 174.859375 150.984375 172.402344 150.5625 170.03125 C 147.996094 155.289062 141.175781 142.148438 131.859375 133.980469 C 123.558594 126.699219 111.992188 122.734375 100.917969 123.355469 C 97.152344 123.582031 93.652344 124.277344 89.949219 125.015625 C 88.109375 125.382812 86.210938 125.761719 84.210938 126.09375 C 75.976562 127.46875 69.25 127.15625 63.660156 125.136719 C 57.984375 123.082031 53.773438 119.464844 51.09375 116.925781 C 50.765625 116.617188 50.449219 116.304688 50.136719 115.996094 C 48.761719 114.652344 47.496094 113.316406 46.28125 112.03125 C 44.445312 110.085938 42.703125 108.253906 40.679688 106.457031 C 32.597656 99.269531 21.097656 94.351562 9.125 92.96875 C -3.480469 91.5 -17.402344 93.898438 -29.074219 99.535156 L -29.300781 99.074219 C -17.546875 93.394531 -3.515625 90.980469 9.183594 92.460938 C 21.25 93.855469 32.851562 98.816406 41.011719 106.074219 C 43.054688 107.882812 44.804688 109.726562 46.652344 111.675781 C 47.867188 112.957031 49.125 114.289062 50.496094 115.628906 C 50.800781 115.929688 51.121094 116.238281 51.449219 116.546875 C 54.089844 119.054688 58.253906 122.632812 63.835938 124.648438 C 69.339844 126.636719 75.980469 126.945312 84.128906 125.585938 C 86.121094 125.253906 88.019531 124.875 89.851562 124.507812 C 93.570312 123.765625 97.085938 123.066406 100.886719 122.835938 C 112.089844 122.199219 123.792969 126.222656 132.199219 133.589844 C 141.742188 141.960938 148.441406 154.863281 151.066406 169.941406 C 151.484375 172.320312 151.824219 174.785156 152.152344 177.164062 C 153.121094 184.257812 154.128906 191.589844 157.519531 197.734375 C 160.777344 203.640625 166.058594 208.121094 173.65625 211.425781 C 177.84375 213.257812 181.945312 214.40625 186.285156 215.628906 C 187.878906 216.078125 189.53125 216.542969 191.242188 217.054688 C 201.433594 220.109375 212.316406 224.730469 221.878906 230.0625 C 230.578125 234.910156 239.339844 240.957031 247.234375 247.554688 C 248.511719 248.621094 249.777344 249.714844 250.992188 250.800781 C 252.425781 252.078125 253.816406 253.371094 255.164062 254.625 C 260.414062 259.5 265.371094 264.097656 272.035156 267.457031 C 282.71875 272.851562 297.882812 273.589844 311.613281 269.386719 C 325.804688 265.050781 337.632812 256.675781 346.351562 249.867188 L 346.667969 250.273438 C 337.921875 257.109375 326.042969 265.519531 311.765625 269.878906 C 305.699219 271.738281 299.46875 272.65625 293.464844 272.65625 Z M 293.464844 272.652344 " fill-opacity="1" fill-rule="nonzero"/><path fill="#41c5bc" d="M 290.097656 274.363281 C 282.320312 274.363281 274.894531 272.921875 268.675781 270.078125 C 261.5625 266.832031 256.136719 262.300781 250.382812 257.507812 C 249.230469 256.542969 248.0625 255.574219 246.875 254.605469 C 245.632812 253.589844 244.339844 252.5625 243.039062 251.550781 C 234.960938 245.261719 226.257812 239.390625 217.886719 234.578125 C 206.398438 227.972656 195.386719 223.246094 188.179688 220.445312 C 187.089844 220.027344 186.027344 219.621094 184.988281 219.21875 C 180.1875 217.386719 175.664062 215.660156 171.128906 213.164062 C 163.816406 209.164062 158.75 204.339844 155.632812 198.414062 C 152.335938 192.148438 151.238281 184.824219 150.183594 177.75 C 149.832031 175.425781 149.472656 173.019531 149.042969 170.695312 C 146.339844 155.867188 139.949219 143.089844 131.0625 134.714844 C 123.171875 127.28125 112.300781 122.835938 101.226562 122.523438 C 97.148438 122.421875 93.296875 122.851562 89.222656 123.308594 C 87.734375 123.472656 86.195312 123.648438 84.601562 123.800781 C 78.886719 124.34375 71.429688 124.652344 64.445312 122.207031 C 59.066406 120.320312 54.839844 117.203125 51.757812 114.691406 C 51.414062 114.417969 51.074219 114.132812 50.746094 113.863281 C 49.460938 112.792969 48.25 111.742188 47.085938 110.726562 C 44.933594 108.855469 42.898438 107.082031 40.574219 105.371094 C 32.023438 99.046875 20.445312 94.820312 8.824219 93.769531 C -3.445312 92.648438 -17.128906 94.957031 -28.714844 100.109375 L -28.925781 99.644531 C -17.261719 94.457031 -3.484375 92.132812 8.863281 93.261719 C 20.578125 94.324219 32.246094 98.589844 40.878906 104.964844 C 43.21875 106.6875 45.261719 108.464844 47.421875 110.347656 C 48.585938 111.363281 49.792969 112.414062 51.074219 113.476562 C 51.402344 113.75 51.742188 114.027344 52.085938 114.308594 C 55.132812 116.792969 59.316406 119.878906 64.621094 121.738281 C 71.511719 124.148438 78.894531 123.84375 84.554688 123.308594 C 86.144531 123.160156 87.683594 122.984375 89.171875 122.820312 C 93.265625 122.363281 97.132812 121.933594 101.246094 122.03125 C 112.4375 122.347656 123.4375 126.84375 131.417969 134.367188 C 140.386719 142.8125 146.828125 155.691406 149.550781 170.628906 C 149.988281 172.960938 150.347656 175.367188 150.695312 177.703125 C 151.746094 184.738281 152.835938 192.015625 156.09375 198.203125 C 159.160156 204.03125 164.160156 208.789062 171.378906 212.746094 C 175.882812 215.222656 180.398438 216.941406 185.175781 218.769531 C 186.21875 219.167969 187.28125 219.574219 188.367188 219.996094 C 195.597656 222.800781 206.628906 227.539062 218.148438 234.15625 C 226.542969 238.980469 235.261719 244.867188 243.363281 251.167969 C 244.667969 252.175781 245.960938 253.207031 247.207031 254.226562 C 248.402344 255.199219 249.566406 256.167969 250.722656 257.132812 C 256.441406 261.90625 261.847656 266.417969 268.898438 269.632812 C 279.78125 274.609375 294.445312 275.242188 308.113281 271.320312 C 319.355469 268.097656 330.089844 262.429688 342.921875 252.925781 L 343.230469 253.335938 C 330.347656 262.875 319.5625 268.578125 308.257812 271.8125 C 302.269531 273.535156 296.085938 274.386719 290.109375 274.386719 Z M 290.097656 274.363281 " fill-opacity="1" fill-rule="nonzero"/><path fill="#41c5bc" d="M 286.628906 276.125 C 279.0625 276.125 271.816406 274.828125 265.546875 272.25 C 257.921875 269.125 251.921875 264.628906 245.574219 259.875 C 244.757812 259.261719 243.933594 258.644531 243.101562 258.027344 C 241.820312 257.078125 240.515625 256.117188 239.183594 255.160156 C 230.664062 249.007812 222.238281 243.453125 214.148438 238.652344 C 205.746094 233.667969 196.566406 228.804688 185.269531 223.355469 L 184.589844 223.027344 C 178.835938 220.246094 173.863281 217.851562 168.808594 214.449219 C 164.40625 211.496094 158.105469 206.667969 154.203125 198.859375 C 151.050781 192.546875 149.871094 185.28125 148.726562 178.257812 C 148.355469 175.988281 147.976562 173.644531 147.535156 171.371094 C 145.542969 160.957031 140.929688 146.269531 130.273438 135.464844 C 122.890625 127.976562 112.417969 122.960938 101.542969 121.703125 C 96.992188 121.1875 92.609375 121.3125 87.96875 121.433594 C 86.996094 121.460938 86.007812 121.488281 84.996094 121.511719 C 78.566406 121.652344 71.722656 121.480469 65.242188 119.285156 C 60.160156 117.566406 55.917969 114.878906 52.433594 112.472656 C 52.074219 112.226562 51.714844 111.972656 51.367188 111.734375 C 50.304688 110.992188 49.28125 110.265625 48.28125 109.546875 C 45.6875 107.695312 43.234375 105.945312 40.484375 104.289062 C 31.351562 98.765625 20 95.3125 8.527344 94.570312 C -3.574219 93.777344 -16.671875 95.949219 -28.351562 100.683594 L -28.546875 100.207031 C -16.796875 95.441406 -3.617188 93.261719 8.558594 94.054688 C 20.113281 94.804688 31.542969 98.285156 40.75 103.847656 C 43.515625 105.511719 45.980469 107.269531 48.582031 109.132812 C 49.582031 109.84375 50.597656 110.574219 51.660156 111.3125 C 52.007812 111.558594 52.363281 111.800781 52.722656 112.050781 C 56.175781 114.4375 60.382812 117.105469 65.398438 118.804688 C 71.808594 120.972656 78.597656 121.144531 84.980469 121.003906 C 85.992188 120.984375 86.976562 120.953125 87.945312 120.925781 C 92.605469 120.800781 97.011719 120.679688 101.59375 121.195312 C 112.582031 122.46875 123.167969 127.535156 130.632812 135.105469 C 141.382812 146.003906 146.027344 160.792969 148.03125 171.273438 C 148.472656 173.550781 148.859375 175.902344 149.226562 178.175781 C 150.363281 185.164062 151.535156 192.390625 154.65625 198.632812 C 158.503906 206.332031 164.738281 211.101562 169.089844 214.027344 C 174.113281 217.410156 179.070312 219.800781 184.808594 222.570312 L 185.484375 222.898438 C 196.796875 228.359375 205.988281 233.226562 214.402344 238.21875 C 222.511719 243.027344 230.945312 248.589844 239.480469 254.753906 C 240.8125 255.71875 242.121094 256.675781 243.40625 257.625 C 244.242188 258.246094 245.0625 258.863281 245.882812 259.480469 C 252.203125 264.21875 258.175781 268.695312 265.742188 271.792969 C 276.675781 276.285156 291.203125 276.824219 304.597656 273.234375 C 315.867188 270.222656 326.949219 264.738281 339.480469 255.960938 L 339.773438 256.378906 C 327.191406 265.191406 316.058594 270.707031 304.726562 273.726562 C 298.703125 275.339844 292.5625 276.140625 286.625 276.140625 Z M 286.628906 276.125 " fill-opacity="1" fill-rule="nonzero"/><path fill="#41c5bc" d="M 283.21875 277.84375 C 275.796875 277.84375 268.65625 276.695312 262.40625 274.421875 C 254.050781 271.382812 247.292969 266.828125 240.140625 262.003906 L 239.316406 261.449219 C 238 260.5625 236.664062 259.664062 235.3125 258.761719 C 225.820312 252.417969 217.667969 247.167969 210.394531 242.71875 C 203.101562 238.25 195.726562 233.992188 189.226562 230.238281 C 186.847656 228.863281 184.546875 227.53125 182.347656 226.25 C 177.1875 223.238281 171.707031 219.945312 166.480469 215.714844 C 162.351562 212.386719 156.441406 207.0625 152.757812 199.289062 C 149.742188 192.929688 148.472656 185.707031 147.246094 178.726562 C 146.863281 176.523438 146.460938 174.246094 146.011719 172.035156 C 143.039062 157.167969 137.320312 144.777344 129.46875 136.199219 C 122.453125 128.53125 112.644531 123.085938 101.847656 120.867188 C 96.691406 119.820312 91.820312 119.558594 86.1875 119.253906 L 85.375 119.207031 C 80.082031 118.941406 72.828125 118.574219 66.015625 116.351562 C 61.054688 114.734375 56.742188 112.34375 53.089844 110.230469 L 50.222656 108.566406 C 46.921875 106.648438 43.808594 104.835938 40.378906 103.183594 C 30.832031 98.5625 19.410156 95.78125 8.214844 95.355469 C -3.523438 94.902344 -16.386719 96.996094 -28.003906 101.246094 L -28.175781 100.761719 C -16.5 96.488281 -3.566406 94.382812 8.234375 94.839844 C 19.496094 95.265625 30.996094 98.066406 40.601562 102.722656 C 44.050781 104.382812 47.167969 106.199219 50.480469 108.125 L 53.347656 109.789062 C 56.976562 111.886719 61.253906 114.261719 66.175781 115.863281 C 72.921875 118.0625 80.136719 118.429688 85.402344 118.695312 L 86.210938 118.742188 C 91.867188 119.042969 96.75 119.3125 101.945312 120.363281 C 112.851562 122.605469 122.761719 128.101562 129.84375 135.847656 C 137.753906 144.5 143.515625 156.980469 146.507812 171.929688 C 146.960938 174.148438 147.359375 176.429688 147.746094 178.632812 C 148.964844 185.582031 150.226562 192.765625 153.214844 199.066406 C 156.851562 206.742188 162.707031 212.011719 166.792969 215.308594 C 171.988281 219.515625 177.449219 222.796875 182.597656 225.804688 C 184.796875 227.085938 187.097656 228.414062 189.472656 229.785156 C 195.976562 233.546875 203.351562 237.804688 210.652344 242.273438 C 217.933594 246.726562 226.085938 251.980469 235.589844 258.328125 C 236.945312 259.234375 238.285156 260.128906 239.597656 261.019531 L 240.425781 261.574219 C 247.550781 266.378906 254.28125 270.921875 262.574219 273.933594 C 273.726562 277.996094 287.757812 278.433594 301.078125 275.132812 C 312.386719 272.335938 323.820312 267.050781 336.039062 258.980469 L 336.320312 259.40625 C 324.054688 267.507812 312.566406 272.820312 301.203125 275.632812 C 295.246094 277.109375 289.140625 277.84375 283.210938 277.84375 Z M 283.21875 277.84375 " fill-opacity="1" fill-rule="nonzero"/><path fill="#41c5bc" d="M 279.703125 279.601562 C 272.515625 279.601562 265.566406 278.597656 259.269531 276.589844 C 250.625 273.839844 243.40625 269.652344 235.539062 264.871094 C 234.191406 264.050781 232.824219 263.214844 231.449219 262.367188 C 224.695312 258.210938 217.59375 253.714844 210.726562 249.371094 L 204.742188 245.589844 C 195.601562 239.816406 186.972656 234.363281 179.429688 229.152344 C 172.929688 224.664062 168.363281 221.027344 164.15625 216.992188 C 159.992188 213.011719 154.78125 207.449219 151.320312 199.738281 C 148.4375 193.308594 147.078125 186.117188 145.765625 179.167969 C 145.363281 177.042969 144.949219 174.84375 144.496094 172.710938 C 141.351562 157.671875 136.03125 145.640625 128.675781 136.941406 C 120.257812 126.992188 109.609375 122.257812 102.160156 120.039062 C 96.609375 118.402344 91.015625 117.601562 85.765625 116.921875 L 84.375 116.746094 C 78.925781 116.0625 72.746094 115.292969 66.800781 113.429688 C 62 111.925781 57.667969 109.863281 53.851562 108.046875 L 52.585938 107.453125 C 48.355469 105.457031 44.5 103.683594 40.28125 102.097656 C 30.242188 98.320312 19.046875 96.265625 7.910156 96.152344 C -3.4375 96.03125 -16.066406 98.046875 -27.644531 101.820312 L -27.800781 101.332031 C -16.167969 97.539062 -3.484375 95.511719 7.914062 95.640625 C 19.105469 95.753906 30.363281 97.820312 40.460938 101.617188 C 44.699219 103.210938 48.558594 104.988281 52.808594 106.992188 L 54.070312 107.585938 C 57.871094 109.398438 62.183594 111.449219 66.953125 112.945312 C 72.855469 114.789062 79.007812 115.558594 84.4375 116.238281 L 85.828125 116.410156 C 91.101562 117.09375 96.714844 117.898438 102.304688 119.546875 C 109.820312 121.785156 120.566406 126.5625 129.066406 136.609375 C 136.476562 145.367188 141.832031 157.476562 145 172.597656 C 145.453125 174.738281 145.867188 176.9375 146.273438 179.0625 C 147.582031 185.984375 148.933594 193.144531 151.792969 199.519531 C 155.214844 207.15625 160.386719 212.667969 164.511719 216.617188 C 168.699219 220.636719 173.25 224.257812 179.726562 228.726562 C 187.261719 233.929688 195.890625 239.378906 205.023438 245.152344 L 211.007812 248.933594 C 217.878906 253.28125 224.980469 257.777344 231.726562 261.925781 C 233.101562 262.773438 234.464844 263.609375 235.816406 264.429688 C 243.65625 269.199219 250.84375 273.367188 259.433594 276.097656 C 270.8125 279.726562 284.355469 280.066406 297.578125 277.054688 C 309.097656 274.429688 320.558594 269.515625 332.609375 262.023438 L 332.882812 262.460938 C 320.78125 269.984375 309.273438 274.921875 297.699219 277.554688 C 291.695312 278.925781 285.617188 279.601562 279.714844 279.601562 Z M 279.703125 279.601562 " fill-opacity="1" fill-rule="nonzero"/><path fill="#41c5bc" d="M 276.203125 281.328125 C 269.195312 281.328125 262.375 280.46875 256.136719 278.761719 C 246.988281 276.261719 239.011719 272.25 231.761719 268.292969 C 230.386719 267.546875 228.980469 266.761719 227.585938 265.976562 C 220.007812 261.695312 211.703125 256.609375 202.898438 250.863281 C 192.144531 243.839844 183.515625 237.6875 176.515625 232.054688 C 170.664062 227.34375 166 222.960938 161.828125 218.261719 C 158.304688 214.292969 153.230469 208.105469 149.878906 200.167969 C 147.125 193.644531 145.667969 186.46875 144.253906 179.523438 C 143.84375 177.503906 143.417969 175.414062 142.972656 173.378906 C 139.632812 158.101562 134.695312 146.425781 127.871094 137.679688 C 121.617188 129.664062 112.832031 123.277344 102.460938 119.207031 C 97.8125 117.390625 92.933594 116.023438 86.144531 114.625 C 84.828125 114.359375 83.472656 114.097656 82.09375 113.832031 C 77.355469 112.917969 72.460938 111.972656 67.582031 110.511719 C 63.628906 109.324219 60.003906 107.925781 56.492188 106.574219 C 55.792969 106.308594 55.105469 106.042969 54.425781 105.78125 C 54.015625 105.625 53.609375 105.472656 53.203125 105.320312 C 48.128906 103.425781 44.117188 102.097656 40.1875 101.007812 C 29.882812 98.148438 18.621094 96.75 7.609375 96.953125 C -3.46875 97.160156 -15.535156 99.039062 -27.289062 102.394531 L -27.425781 101.902344 C -15.636719 98.535156 -3.523438 96.648438 7.597656 96.441406 C 18.660156 96.238281 29.976562 97.640625 40.324219 100.511719 C 44.269531 101.605469 48.296875 102.9375 53.382812 104.835938 C 53.789062 104.988281 54.199219 105.144531 54.609375 105.296875 C 55.292969 105.558594 55.980469 105.820312 56.675781 106.09375 C 60.175781 107.441406 63.800781 108.839844 67.730469 110.019531 C 72.582031 111.476562 77.464844 112.414062 82.1875 113.328125 C 83.574219 113.59375 84.929688 113.855469 86.246094 114.125 C 93.066406 115.53125 97.972656 116.90625 102.652344 118.730469 C 113.109375 122.835938 121.972656 129.28125 128.28125 137.367188 C 135.152344 146.171875 140.125 157.917969 143.480469 173.269531 C 143.933594 175.3125 144.359375 177.40625 144.769531 179.429688 C 146.175781 186.34375 147.625 193.496094 150.363281 199.972656 C 153.6875 207.839844 158.726562 213.984375 162.226562 217.921875 C 166.375 222.597656 171.019531 226.960938 176.847656 231.652344 C 183.832031 237.277344 192.449219 243.417969 203.191406 250.433594 C 211.988281 256.175781 220.277344 261.253906 227.847656 265.527344 C 229.238281 266.3125 230.644531 267.09375 232.019531 267.84375 C 239.242188 271.789062 247.1875 275.78125 256.285156 278.265625 C 267.738281 281.398438 281.15625 281.652344 294.074219 278.972656 C 305.824219 276.539062 317.308594 271.988281 329.175781 265.0625 L 329.433594 265.503906 C 317.515625 272.457031 305.984375 277.027344 294.179688 279.46875 C 288.21875 280.707031 282.152344 281.324219 276.21875 281.324219 Z M 276.203125 281.328125 " fill-opacity="1" fill-rule="nonzero"/><path fill="#41c5bc" d="M 272.597656 283.082031 C 265.855469 283.082031 259.253906 282.363281 253 280.925781 C 245.058594 279.105469 237.339844 276.261719 227.980469 271.710938 C 226.570312 271.023438 225.132812 270.304688 223.71875 269.578125 C 215.667969 265.425781 207.398438 260.5 199.148438 254.933594 C 189.363281 248.328125 180.769531 241.605469 173.601562 234.953125 C 168.191406 229.929688 163.585938 224.882812 159.511719 219.53125 C 154.4375 212.871094 150.921875 206.859375 148.4375 200.605469 C 145.800781 193.949219 144.230469 186.738281 142.714844 179.761719 C 142.304688 177.882812 141.886719 175.945312 141.449219 174.046875 C 137.84375 158.242188 133.410156 147.253906 127.066406 138.417969 C 121.179688 130.214844 112.777344 123.28125 102.765625 118.371094 C 97.960938 116.027344 92.800781 114.101562 86.519531 112.324219 C 83.835938 111.566406 81.074219 110.875 78.15625 110.148438 C 74.949219 109.347656 71.632812 108.515625 68.355469 107.578125 C 65.753906 106.832031 63.222656 106.042969 60.773438 105.277344 C 58.796875 104.660156 56.933594 104.082031 55.082031 103.53125 C 54.65625 103.410156 54.230469 103.285156 53.808594 103.164062 C 49 101.792969 44.511719 100.726562 40.078125 99.894531 C 29.527344 97.914062 18.5 97.1875 7.296875 97.734375 C -3.398438 98.253906 -14.917969 100.007812 -26.941406 102.949219 L -27.0625 102.449219 C -15.003906 99.5 -3.453125 97.746094 7.269531 97.222656 C 18.515625 96.671875 29.585938 97.402344 40.175781 99.390625 C 44.617188 100.222656 49.125 101.296875 53.953125 102.671875 C 54.378906 102.792969 54.804688 102.917969 55.230469 103.039062 C 57.085938 103.589844 58.957031 104.167969 60.929688 104.785156 C 63.378906 105.550781 65.90625 106.335938 68.5 107.078125 C 71.769531 108.015625 75.082031 108.84375 78.285156 109.644531 C 81.210938 110.378906 83.976562 111.066406 86.664062 111.824219 C 92.976562 113.609375 98.164062 115.546875 102.996094 117.90625 C 113.082031 122.851562 121.554688 129.839844 127.488281 138.113281 C 133.871094 147.007812 138.328125 158.050781 141.953125 173.921875 C 142.386719 175.824219 142.808594 177.765625 143.21875 179.644531 C 144.734375 186.597656 146.292969 193.789062 148.914062 200.402344 C 151.378906 206.613281 154.871094 212.589844 159.917969 219.210938 C 163.96875 224.535156 168.5625 229.558594 173.945312 234.5625 C 181.09375 241.203125 189.667969 247.910156 199.429688 254.496094 C 207.667969 260.054688 215.914062 264.96875 223.949219 269.109375 C 225.359375 269.839844 226.789062 270.558594 228.203125 271.238281 C 237.523438 275.777344 245.207031 278.601562 253.109375 280.414062 C 264.824219 283.101562 277.761719 283.261719 290.546875 280.875 C 302.382812 278.667969 314.214844 274.363281 325.722656 268.089844 L 325.96875 268.539062 C 314.414062 274.839844 302.53125 279.164062 290.640625 281.382812 C 284.613281 282.507812 278.546875 283.070312 272.589844 283.070312 Z M 272.597656 283.082031 " fill-opacity="1" fill-rule="nonzero"/><path fill="#41c5bc" d="M 268.921875 284.8125 C 262.429688 284.8125 256.015625 284.238281 249.863281 283.09375 C 241.402344 281.523438 233.015625 278.914062 224.203125 275.128906 C 222.753906 274.503906 221.285156 273.847656 219.851562 273.179688 C 211.539062 269.289062 203.316406 264.519531 195.402344 258.996094 C 186.148438 252.542969 177.835938 245.425781 170.691406 237.839844 C 165.558594 232.390625 161.148438 226.820312 157.195312 220.796875 C 152.785156 214.066406 149.449219 207.601562 147.007812 201.035156 C 144.460938 194.144531 142.753906 186.792969 141.105469 179.675781 C 140.71875 178.015625 140.335938 176.359375 139.941406 174.707031 C 137.078125 162.675781 133.4375 150.042969 126.28125 139.148438 C 120.640625 130.5625 112.835938 123.289062 103.089844 117.527344 C 98.191406 114.636719 92.902344 112.179688 86.921875 110.011719 C 81.375 108.011719 75.347656 106.328125 69.152344 104.640625 C 64.121094 103.269531 59.921875 102.179688 55.765625 101.289062 C 55.324219 101.199219 54.875 101.105469 54.433594 101.011719 C 49.628906 100.039062 44.902344 99.308594 39.992188 98.792969 C 29.605469 97.695312 18.507812 97.605469 7.003906 98.523438 C -3.007812 99.324219 -13.996094 100.957031 -26.574219 103.511719 L -26.679688 103.007812 C -14.078125 100.449219 -3.070312 98.816406 6.960938 98.011719 C 18.5 97.089844 29.628906 97.175781 40.046875 98.277344 C 44.972656 98.796875 49.714844 99.527344 54.539062 100.511719 C 54.980469 100.601562 55.425781 100.695312 55.871094 100.789062 C 60.042969 101.679688 64.25 102.773438 69.289062 104.144531 C 75.5 105.832031 81.53125 107.519531 87.101562 109.527344 C 93.117188 111.703125 98.433594 114.175781 103.355469 117.078125 C 113.171875 122.882812 121.03125 130.210938 126.71875 138.859375 C 133.917969 149.816406 137.570312 162.503906 140.449219 174.585938 C 140.84375 176.234375 141.226562 177.894531 141.613281 179.554688 C 143.261719 186.652344 144.964844 193.988281 147.5 200.851562 C 149.925781 207.382812 153.246094 213.8125 157.636719 220.507812 C 161.566406 226.5 165.964844 232.054688 171.078125 237.480469 C 178.191406 245.035156 186.480469 252.132812 195.707031 258.566406 C 203.597656 264.070312 211.796875 268.828125 220.078125 272.703125 C 221.503906 273.367188 222.960938 274.027344 224.414062 274.648438 C 233.1875 278.417969 241.546875 281.007812 249.96875 282.578125 C 261.800781 284.78125 274.621094 284.859375 287.046875 282.796875 C 299.148438 280.789062 311.007812 276.867188 322.296875 271.132812 L 322.527344 271.589844 C 311.191406 277.351562 299.285156 281.292969 287.128906 283.304688 C 281.105469 284.304688 274.980469 284.800781 268.925781 284.800781 Z M 268.921875 284.8125 " fill-opacity="1" fill-rule="nonzero"/><path fill="#41c5bc" d="M 265.046875 286.546875 C 248.242188 286.546875 231.445312 283.304688 215.984375 276.78125 C 183.410156 263.046875 157.082031 234.890625 145.558594 201.472656 C 143.03125 194.144531 141.136719 186.4375 139.304688 178.988281 C 136.019531 165.625 132.617188 151.8125 125.476562 139.890625 C 112.492188 118.234375 87.324219 103.347656 56.414062 99.0625 C 28.75 95.226562 0.800781 99.734375 -26.230469 104.09375 L -26.3125 103.585938 C 0.753906 99.21875 28.742188 94.707031 56.488281 98.554688 C 70.808594 100.542969 84.523438 105.042969 96.15625 111.566406 C 109.097656 118.835938 119.113281 128.269531 125.917969 139.628906 C 133.101562 151.617188 136.507812 165.472656 139.800781 178.867188 C 141.632812 186.308594 143.527344 194.003906 146.046875 201.3125 C 157.523438 234.597656 183.746094 262.632812 216.183594 276.3125 C 248.625 289.992188 287.003906 289.199219 318.847656 274.191406 L 319.070312 274.652344 C 302.269531 282.570312 283.652344 286.550781 265.046875 286.550781 Z M 265.046875 286.546875 " fill-opacity="1" fill-rule="nonzero"/></svg>